<svg width="58" height="59" viewBox="0 0 58 59" fill="none" xmlns="http://www.w3.org/2000/svg">
<path d="M51.3201 26.15C51.0201 26.06 50.7101 26.1 50.4301 26.26C50.1601 26.42 49.9601 26.69 49.8801 27.01C49.7301 27.64 50.1201 28.28 50.7601 28.45C55.3801 29.7 55.3801 31.2 55.3801 32.19C55.3801 33.01 54.1001 34.01 51.9301 34.9C51.9001 34.78 51.8701 34.66 51.8401 34.54C51.6001 33.55 51.3701 32.61 49.4901 31.87C49.2001 31.76 48.8901 31.77 48.6101 31.91C48.3201 32.05 48.1001 32.32 48.0001 32.64C47.8301 33.23 48.1601 33.88 48.7601 34.15C49.7801 34.6 49.7501 35.01 49.7201 35.45C49.7201 35.52 49.7101 35.6 49.7101 35.67C45.5701 36.9 40.0201 37.57 34.0501 37.57C28.1201 37.57 22.6001 36.9 18.4701 35.69C18.9501 35.04 21.0301 33.82 25.7901 33.06C26.4301 32.96 26.8901 32.35 26.8001 31.71C26.7601 31.39 26.5901 31.11 26.3301 30.92C26.0801 30.73 25.7601 30.66 25.4501 30.7C22.9801 31.1 20.8501 31.66 19.3001 32.35C17.6601 33.07 16.6201 33.93 16.2001 34.9C14.0201 34.02 12.7301 33.01 12.7301 32.19C12.7301 31.94 12.9401 30.61 17.0301 29.15C19.9401 28.11 24.0201 27.36 28.5001 27.02C29.1501 26.97 29.6501 26.4 29.6101 25.76C29.5901 25.44 29.4501 25.15 29.2101 24.94C28.9701 24.73 28.6601 24.63 28.3501 24.65C23.6501 25 19.3501 25.81 16.2401 26.92C11.3801 28.65 10.3601 30.74 10.3601 32.2C10.3601 34.21 10.7301 36.19 11.4601 38.06L13.0201 42.06C13.1401 42.35 13.3601 42.59 13.6501 42.72C13.9401 42.85 14.2601 42.85 14.5601 42.74C14.8501 42.62 15.0901 42.4 15.2201 42.11C15.3501 41.82 15.3501 41.5 15.2401 41.2L13.6801 37.2C13.5501 36.86 13.4301 36.51 13.3201 36.15C14.4901 36.83 15.9901 37.44 17.8101 37.97C22.1701 39.24 27.9301 39.94 34.0501 39.94C40.1701 39.94 45.9401 39.24 50.2901 37.97C52.1101 37.44 53.6101 36.83 54.7801 36.15C54.6701 36.5 54.5501 36.85 54.4201 37.2L51.2001 45.48C51.0101 45.96 50.7801 46.42 50.5101 46.85C50.1601 47.41 50.2701 48.13 50.7601 48.53C50.9701 48.7 51.2301 48.78 51.4901 48.78C51.5501 48.78 51.6101 48.78 51.6701 48.77C51.9801 48.72 52.2401 48.55 52.4101 48.29C52.8101 47.68 53.1501 47.02 53.4101 46.34L56.6301 38.06C57.3601 36.18 57.7301 34.21 57.7301 32.2C57.7501 28.54 53.7201 26.84 51.3201 26.15Z" fill="#F37321"/>
<path d="M31.0701 27.2001L28.7901 31.7601C28.5001 32.3401 28.7401 33.0601 29.3201 33.3501C29.9101 33.6401 30.6201 33.4001 30.9101 32.8201L33.1901 28.2601C34.9901 24.6801 38.0001 21.8501 41.6701 20.2601C41.6801 20.3001 41.7001 20.3401 41.7101 20.3801C39.1601 22.5601 36.8501 25.5401 35.1901 28.7801L32.8601 33.3101C32.7101 33.5901 32.6901 33.9101 32.7801 34.2201C32.8801 34.5201 33.0901 34.7701 33.3701 34.9101C33.6501 35.0501 33.9701 35.0801 34.2801 34.9901C34.5801 34.8901 34.8301 34.6801 34.9701 34.4001L37.3001 29.8701C38.8001 26.9301 40.8901 24.2301 43.1801 22.2501C43.2401 22.2901 43.3001 22.3301 43.3601 22.3701C43.4201 22.4001 43.4701 22.4401 43.5301 22.4701L42.4801 24.4301C41.4601 26.3401 40.4001 28.3201 39.3201 30.3701L37.6301 33.5501C37.3201 34.1301 37.5501 34.8501 38.1201 35.1601C38.7001 35.4701 39.4201 35.2401 39.7301 34.6701L41.4201 31.4901C42.5001 29.4401 43.5501 27.4701 44.5701 25.5701L45.5201 23.7901C45.5301 26.6401 44.8201 29.4501 43.4501 31.9601L42.5801 33.5501C42.4301 33.8301 42.3901 34.1501 42.4801 34.4501C42.5701 34.7501 42.7701 35.0101 43.0501 35.1601C43.2301 35.2601 43.4201 35.3101 43.6201 35.3101C43.7301 35.3101 43.8501 35.2901 43.9601 35.2601C44.2601 35.1701 44.5201 34.9701 44.6701 34.6901L45.5401 33.1001C47.3901 29.7201 48.1801 25.9201 47.8201 22.0801C48.1801 21.8001 48.4801 21.4501 48.7201 21.0601L56.2001 8.85011C56.7501 7.96011 56.9101 6.90011 56.6701 5.89011C56.4301 4.88011 55.7901 4.00011 54.9001 3.46011C54.0101 2.91011 52.9501 2.75011 51.9401 2.99011C50.9201 3.24011 50.0601 3.86011 49.5201 4.76011L42.0601 16.9701C41.9201 17.2001 41.8001 17.4501 41.7101 17.7001C37.0701 19.4201 33.3001 22.7901 31.0701 27.2001ZM53.1001 5.27011C53.3001 5.30011 53.4901 5.37011 53.6701 5.48011C53.8401 5.59011 53.9901 5.72011 54.1101 5.89011C54.2301 6.06011 54.3201 6.24011 54.3601 6.44011C54.4101 6.64011 54.4201 6.84011 54.3801 7.04011C54.3501 7.24011 54.2801 7.43011 54.1701 7.61011L46.7101 19.8201C46.6001 19.9901 46.4701 20.1401 46.3001 20.2601C46.1301 20.3801 45.9501 20.4701 45.7501 20.5101C45.5501 20.5601 45.3501 20.5701 45.1501 20.5301C44.9501 20.5001 44.7601 20.4301 44.5801 20.3201C44.4101 20.2101 44.2601 20.0801 44.1401 19.9101C44.0201 19.7501 43.9301 19.5601 43.8901 19.3601C43.8401 19.1601 43.8301 18.9601 43.8701 18.7601C43.9001 18.5601 43.9701 18.3701 44.0801 18.1901L51.5401 6.00011C51.6501 5.83011 51.7801 5.68011 51.9501 5.56011C52.1101 5.44011 52.3001 5.35011 52.5001 5.31011C52.6201 5.28011 52.7401 5.27011 52.8601 5.27011C52.9401 5.25011 53.0201 5.26011 53.1001 5.27011Z" fill="#F37321"/>
<path d="M1.76008 45.48C1.91008 45.55 2.07008 45.58 2.24008 45.58C2.41008 45.58 2.57008 45.54 2.73008 45.47C3.27008 45.22 3.57008 44.58 3.44008 43.91C3.40008 43.69 3.38008 43.47 3.38008 43.25V42.11C3.38008 32.42 4.89008 22.84 7.88008 13.62H27.8901C27.1701 15.92 26.5201 18.28 25.9701 20.63C25.9001 20.94 25.9501 21.25 26.1201 21.52C26.2901 21.79 26.5501 21.98 26.8701 22.05C27.5101 22.19 28.1401 21.79 28.2901 21.15C28.8801 18.63 29.5801 16.1 30.3801 13.62H32.2001C33.2701 13.62 34.2701 13.2 35.0301 12.45C35.7901 11.7 36.2001 10.69 36.2001 9.62V6.81C36.2001 6.65 36.1701 6.5 36.1101 6.35C36.0501 6.2 35.9601 6.08 35.8501 5.97C35.7401 5.86 35.6101 5.77 35.4701 5.71C35.3301 5.65 35.1701 5.62 35.0101 5.62H30.5801C30.6301 4.78 30.9901 4 31.5901 3.4C32.2501 2.74 33.1301 2.37 34.0601 2.37H34.2301C34.9901 2.37 35.7501 2.63 36.3501 3.09C36.9601 3.55 37.4001 4.21 37.6001 4.95L38.6201 8.43C38.8601 9.3 39.0901 10.21 39.3201 11.15C39.4701 11.78 40.1101 12.18 40.7501 12.04C41.0601 11.97 41.3301 11.78 41.4901 11.51C41.6601 11.24 41.7101 10.92 41.6301 10.62C41.4101 9.68 41.1601 8.74 40.9101 7.81L39.9001 4.33C39.5601 3.09 38.8101 1.99 37.8001 1.21C36.7801 0.43 35.5101 0 34.2301 0H8.75008C7.18008 0 5.71008 0.61 4.60008 1.72C3.49008 2.83 2.88008 4.31 2.88008 5.88V9.63C2.88008 10.48 3.16008 11.32 3.66008 12C4.12008 12.62 4.74008 13.09 5.46008 13.37C2.50008 22.68 1.00008 32.35 1.00008 42.12V43.26C1.00008 43.78 1.07008 44.31 1.21008 44.82C1.29008 45.12 1.48008 45.35 1.76008 45.48ZM33.8101 9.62C33.8101 10.05 33.6401 10.47 33.3301 10.77C32.7201 11.39 31.6401 11.38 31.0301 10.77C30.7201 10.46 30.5501 10.06 30.5501 9.62V8H33.8001V9.62H33.8101ZM28.5301 11.25H6.88008C6.45008 11.25 6.04008 11.08 5.73008 10.77C5.42008 10.46 5.25008 10.05 5.25008 9.62V5.88C5.25008 4.95 5.62008 4.07 6.28008 3.41C6.94008 2.75 7.82008 2.38 8.75008 2.38H29.3501C28.6001 3.39 28.1901 4.61 28.1901 5.88V9.63C28.1901 10.19 28.3101 10.74 28.5301 11.25Z" fill="#F37321"/>
<path d="M48.0901 49.1699C47.7001 48.8199 47.2501 48.5499 46.7601 48.3799C46.2601 48.2099 45.7501 48.1499 45.2201 48.1999L44.4901 48.2699C43.8901 47.3299 43.0601 46.5499 42.0901 46.0099C41.0701 45.4399 39.9201 45.1399 38.7501 45.1299H11.5601C10.3901 45.1299 9.24007 45.4299 8.22007 45.9999C7.25007 46.5399 6.42007 47.3299 5.82007 48.2599L5.10007 48.1999C4.59007 48.1499 4.09007 48.2099 3.60007 48.3699C3.11007 48.5299 2.67007 48.7799 2.29007 49.1099C1.91007 49.4399 1.60007 49.8499 1.37007 50.3099C1.15007 50.7699 1.03007 51.2599 1.00007 51.7699C0.98007 52.2799 1.06007 52.7799 1.24007 53.2599C1.42007 53.7399 1.69007 54.1699 2.04007 54.5399C2.39007 54.9099 2.81007 55.1999 3.28007 55.3999C3.85007 55.6499 4.48007 55.7499 5.09007 55.6899L5.82007 55.6199C6.42007 56.5599 7.25007 57.3299 8.22007 57.8799C9.24007 58.4499 10.3901 58.7599 11.5501 58.7599H38.7401C38.7501 58.7599 38.7601 58.7599 38.7601 58.7599C39.6501 58.7599 40.5201 58.5899 41.3501 58.2499C42.1801 57.9099 42.9201 57.4099 43.5601 56.7699C43.9101 56.4199 44.2201 56.0399 44.4801 55.6299L45.2101 55.6999C46.0801 55.7799 46.9501 55.5499 47.6701 55.0599C48.3001 54.6299 48.7701 54.0299 49.0501 53.3199C49.3201 52.6099 49.3801 51.8499 49.2001 51.1099C49.0401 50.3399 48.6501 49.6799 48.0901 49.1699ZM45.4201 50.5599C45.6101 50.5399 45.8001 50.5599 45.9801 50.6199C46.1601 50.6799 46.3201 50.7699 46.4601 50.8899C46.6001 51.0099 46.7101 51.1599 46.8001 51.3299C46.8801 51.4999 46.9301 51.6799 46.9401 51.8699C46.9501 52.0599 46.9201 52.2399 46.8601 52.4199C46.7901 52.5999 46.7001 52.7499 46.5701 52.8899C46.4401 53.0199 46.2901 53.1299 46.1201 53.2099C45.9101 53.2999 45.6901 53.3399 45.4501 53.3199H45.4401C45.6101 52.4099 45.6101 51.4699 45.4201 50.5599ZM4.75007 50.5599C4.79007 50.5599 4.84007 50.5599 4.88007 50.5699L10.5201 51.0799C10.7401 51.0999 10.9401 51.1999 11.0801 51.3599C11.2301 51.5199 11.3101 51.7299 11.3101 51.9399C11.3101 52.1499 11.2301 52.3599 11.0801 52.5199C10.9301 52.6799 10.7401 52.7799 10.5201 52.7999L4.88007 53.3099C4.69007 53.3299 4.51007 53.3099 4.33007 53.2499C4.15007 53.1899 3.99007 53.0999 3.85007 52.9799C3.71007 52.8599 3.60007 52.7099 3.52007 52.5399C3.43007 52.3699 3.39007 52.1899 3.38007 51.9999C3.37007 51.8099 3.40007 51.6299 3.47007 51.4499C3.53007 51.2799 3.63007 51.1199 3.76007 50.9799C3.89007 50.8399 4.04007 50.7399 4.22007 50.6599C4.38007 50.5899 4.57007 50.5599 4.75007 50.5599ZM10.7401 55.1699C11.5501 55.0999 12.2901 54.7299 12.8401 54.1299C13.3901 53.5299 13.6901 52.7599 13.6901 51.9399C13.6901 51.1199 13.3901 50.3499 12.8401 49.7599C12.2901 49.1599 11.5501 48.7899 10.7401 48.7199L8.72007 48.5399C9.17007 48.1599 9.70007 47.8799 10.2701 47.7099C10.9701 47.4999 11.7101 47.4599 12.4201 47.5999C13.1301 47.7399 13.8101 48.0599 14.3701 48.5199C14.9301 48.9799 15.3801 49.5799 15.6501 50.2499C15.9301 50.9199 16.0401 51.6599 15.9701 52.3799C15.9001 53.0999 15.6501 53.8099 15.2401 54.4099C14.8401 55.0099 14.2801 55.5099 13.6401 55.8599C13.0001 56.2099 12.2801 56.3799 11.5501 56.3799C10.9401 56.3799 10.3501 56.2499 9.79007 56.0099C9.40007 55.8399 9.04007 55.6199 8.71007 55.3499L10.7401 55.1699ZM17.8401 54.5799C18.1901 53.7399 18.3701 52.8499 18.3701 51.9399C18.3701 51.0299 18.1901 50.1399 17.8401 49.2999C17.5601 48.6399 17.1901 48.0399 16.7301 47.4999H38.7501C39.6301 47.4999 40.4801 47.7599 41.2201 48.2499C41.9501 48.7399 42.5201 49.4299 42.8501 50.2399C43.1901 51.0499 43.2701 51.9399 43.1001 52.7999C42.9301 53.6599 42.5101 54.4499 41.8901 55.0699C41.4701 55.4899 40.9901 55.8099 40.4501 56.0299C39.9101 56.2499 39.3501 56.3599 38.7701 56.3599H16.7301C17.1901 55.8399 17.5601 55.2399 17.8401 54.5799Z" fill="#F37321"/>
</svg>
