<svg width="60" height="56" viewBox="0 0 60 56" fill="none" xmlns="http://www.w3.org/2000/svg">
<g clip-path="url(#clip0_23:119)">
<path d="M32.4515 5.65518C32.394 5.47722 32.2877 5.31895 32.1447 5.19837C32.0017 5.0778 31.8278 4.99973 31.6426 4.97306L28.3613 4.49993L26.8953 1.55444C26.8124 1.3879 26.6847 1.24778 26.5265 1.14983C26.3684 1.05189 26.186 1 26 1C25.814 1 25.6317 1.05189 25.4735 1.14983C25.3154 1.24778 25.1877 1.3879 25.1048 1.55444L23.6388 4.49993L20.3574 4.97281C20.1723 4.99949 19.9983 5.07756 19.8553 5.19815C19.7124 5.31874 19.6061 5.47701 19.5485 5.65499C19.491 5.83297 19.4845 6.02351 19.5299 6.20498C19.5752 6.38644 19.6705 6.55156 19.805 6.68156L22.175 8.97231L21.616 12.2046C21.5843 12.3882 21.6045 12.5771 21.6744 12.75C21.7443 12.9228 21.8611 13.0726 22.0117 13.1825C22.1622 13.2925 22.3405 13.3581 22.5264 13.3721C22.7122 13.3861 22.8983 13.3478 23.0636 13.2617L26.0011 11.7304L28.9386 13.2617C29.1039 13.3478 29.29 13.3861 29.4759 13.3721C29.6618 13.3581 29.8401 13.2925 29.9906 13.1825C30.1412 13.0726 30.258 12.9228 30.3279 12.75C30.3978 12.5771 30.418 12.3882 30.3863 12.2046L29.825 8.97231L32.195 6.68181C32.3295 6.5518 32.4249 6.38668 32.4702 6.2052C32.5155 6.02373 32.5091 5.83317 32.4515 5.65518ZM28.055 7.90218C27.9378 8.01552 27.85 8.1558 27.7994 8.31082C27.7488 8.46583 27.7369 8.63087 27.7646 8.79156L28.0694 10.5541L26.4624 9.71656C26.3196 9.64207 26.1609 9.60318 25.9999 9.60318C25.8388 9.60318 25.6802 9.64207 25.5374 9.71656L23.9304 10.5541L24.2351 8.79156C24.2629 8.63087 24.251 8.46583 24.2004 8.31082C24.1498 8.1558 24.062 8.01552 23.9448 7.90218L22.6614 6.66156L24.4428 6.40493C24.6029 6.38186 24.755 6.32028 24.8861 6.22549C25.0172 6.13069 25.1233 6.00551 25.1954 5.86068L26 4.24443L26.8044 5.86068C26.8765 6.00551 26.9826 6.13069 27.1137 6.22549C27.2448 6.32028 27.3969 6.38186 27.557 6.40493L29.3384 6.66156L28.055 7.90218Z" fill="#F37321"/>
<path d="M45.9515 9.65518C45.894 9.47721 45.7877 9.31895 45.6447 9.19837C45.5017 9.0778 45.3278 8.99973 45.1426 8.97306L41.8613 8.49993L40.3953 5.55443C40.3124 5.38789 40.1847 5.24778 40.0265 5.14983C39.8684 5.05189 39.686 5 39.5 5C39.314 5 39.1316 5.05189 38.9735 5.14983C38.8153 5.24778 38.6876 5.38789 38.6048 5.55443L37.1388 8.49993L33.8574 8.97281C33.6722 8.99949 33.4983 9.07756 33.3553 9.19815C33.2123 9.31874 33.106 9.47701 33.0485 9.65499C32.991 9.83296 32.9845 10.0235 33.0299 10.205C33.0752 10.3864 33.1705 10.5516 33.305 10.6816L35.675 12.9723L35.116 16.2046C35.0842 16.3882 35.1045 16.5772 35.1744 16.75C35.2443 16.9228 35.3611 17.0726 35.5116 17.1825C35.6622 17.2925 35.8405 17.3581 36.0263 17.3721C36.2122 17.3861 36.3983 17.3478 36.5636 17.2617L39.5011 15.7304L42.4386 17.2617C42.6039 17.3478 42.79 17.3861 42.9759 17.3721C43.1618 17.3581 43.3401 17.2925 43.4906 17.1825C43.6412 17.0726 43.758 16.9228 43.8279 16.75C43.8978 16.5772 43.918 16.3882 43.8863 16.2046L43.325 12.9723L45.6945 10.6818C45.8291 10.5519 45.9245 10.3868 45.97 10.2053C46.0154 10.0238 46.009 9.83321 45.9515 9.65518ZM41.555 11.9022C41.4378 12.0155 41.35 12.1558 41.2994 12.3108C41.2488 12.4658 41.2369 12.6309 41.2646 12.7916L41.5694 14.5541L39.9624 13.7166C39.8196 13.6421 39.6609 13.6032 39.4999 13.6032C39.3388 13.6032 39.1802 13.6421 39.0374 13.7166L37.4304 14.5541L37.7351 12.7916C37.7629 12.6309 37.751 12.4658 37.7004 12.3108C37.6498 12.1558 37.562 12.0155 37.4448 11.9022L36.1614 10.6616L37.9428 10.4049C38.1029 10.3819 38.255 10.3203 38.3861 10.2255C38.5172 10.1307 38.6233 10.0055 38.6954 9.86068L39.5 8.24443L40.3044 9.86068C40.3765 10.0055 40.4826 10.1307 40.6137 10.2255C40.7448 10.3203 40.8969 10.3819 41.057 10.4049L42.8384 10.6616L41.555 11.9022Z" fill="#F37321"/>
<path d="M18.9515 10.2802C18.894 10.1022 18.7877 9.94395 18.6447 9.82337C18.5017 9.7028 18.3278 9.62473 18.1426 9.59806L14.8613 9.12493L13.3953 6.17943C13.3124 6.01289 13.1847 5.87278 13.0265 5.77483C12.8684 5.67689 12.686 5.625 12.5 5.625C12.314 5.625 12.1317 5.67689 11.9735 5.77483C11.8154 5.87278 11.6877 6.01289 11.6048 6.17943L10.1388 9.12493L6.85741 9.59781C6.67228 9.62449 6.49834 9.70256 6.35536 9.82315C6.21237 9.94374 6.10608 10.102 6.04855 10.28C5.99101 10.458 5.98455 10.6485 6.02989 10.83C6.07523 11.0114 6.17055 11.1766 6.30503 11.3066L8.67503 13.5973L8.11603 16.8296C8.08427 17.0132 8.10449 17.2022 8.1744 17.375C8.24431 17.5478 8.36113 17.6976 8.51167 17.8075C8.66221 17.9175 8.84049 17.9831 9.02638 17.9971C9.21226 18.0111 9.39836 17.9728 9.56366 17.8867L12.5011 16.3554L15.4386 17.8867C15.6039 17.9728 15.79 18.0111 15.9759 17.9971C16.1618 17.9831 16.3401 17.9175 16.4906 17.8075C16.6412 17.6976 16.758 17.5478 16.8279 17.375C16.8978 17.2022 16.918 17.0132 16.8863 16.8296L16.325 13.5973L18.6945 11.3068C18.8291 11.1769 18.9245 11.0118 18.97 10.8303C19.0154 10.6488 19.009 10.4582 18.9515 10.2802ZM14.555 12.5272C14.4378 12.6405 14.35 12.7808 14.2994 12.9358C14.2488 13.0908 14.2369 13.2559 14.2646 13.4166L14.5694 15.1791L12.9624 14.3416C12.8196 14.2671 12.6609 14.2282 12.4999 14.2282C12.3389 14.2282 12.1802 14.2671 12.0374 14.3416L10.4304 15.1791L10.7351 13.4166C10.7629 13.2559 10.751 13.0908 10.7004 12.9358C10.6498 12.7808 10.562 12.6405 10.4448 12.5272L9.16141 11.2866L10.9428 11.0299C11.1029 11.0069 11.255 10.9453 11.3861 10.8505C11.5172 10.7557 11.6233 10.6305 11.6954 10.4857L12.5 8.86943L13.3044 10.4857C13.3765 10.6305 13.4826 10.7557 13.6137 10.8505C13.7448 10.9453 13.8969 11.0069 14.057 11.0299L15.8384 11.2866L14.555 12.5272Z" fill="#F37321"/>
<path d="M59 39H53C52.8088 39.0001 52.6217 39.055 52.4608 39.1582C52.2999 39.2614 52.172 39.4086 52.0923 39.5824C52.0116 39.4546 51.9408 39.3209 51.8804 39.1824L49.9191 34.6063C49.9164 34.5995 49.9134 34.5929 49.9104 34.5863L44.9104 23.5863C44.8547 23.4639 44.775 23.354 44.6759 23.2631C44.5768 23.1723 44.4604 23.1023 44.3337 23.0575C44.207 23.0126 44.0725 22.9938 43.9383 23.0021C43.8041 23.0104 43.673 23.0456 43.5528 23.1058C42.3229 23.7206 41.5606 24.4996 41.1222 25.3641C37.6468 22.5361 33.4462 20.7423 29 20.1875V18H30C30.2652 18 30.5196 17.8947 30.7071 17.7071C30.8946 17.5196 31 17.2652 31 17C31 16.7348 30.8946 16.4804 30.7071 16.2929C30.5196 16.1054 30.2652 16 30 16H22C21.7348 16 21.4804 16.1054 21.2929 16.2929C21.1054 16.4804 21 16.7348 21 17C21 17.2652 21.1054 17.5196 21.2929 17.7071C21.4804 17.8947 21.7348 18 22 18H23V20.1875C11.5014 21.6274 2.50725 31.2343 2.02238 43H1C0.734784 43 0.48043 43.1054 0.292893 43.2929C0.105357 43.4804 0 43.7348 0 44V46C0.000893291 46.7954 0.317251 47.5579 0.879666 48.1203C1.44208 48.6828 2.20462 48.9991 3 49H30.7664C31.1521 49.4311 31.6541 49.7416 32.2121 49.8943C32.0313 50.3492 31.9646 50.8415 32.0178 51.3282C32.0711 51.8149 32.2428 52.2811 32.5178 52.6861C32.7928 53.0911 33.1628 53.4226 33.5955 53.6517C34.0282 53.8807 34.5104 54.0003 35 54H52C52 54.2652 52.1054 54.5196 52.2929 54.7071C52.4804 54.8947 52.7348 55 53 55H59C59.2652 55 59.5196 54.8947 59.7071 54.7071C59.8946 54.5196 60 54.2652 60 54V40C60 39.7348 59.8946 39.4804 59.7071 39.2929C59.5196 39.1054 59.2652 39 59 39ZM25 18H27V20.0218C26.6676 20.0081 26.3343 20 26 20C25.6658 20 25.3319 20.0088 25 20.0224V18ZM26 22C31.3908 21.9936 36.5952 23.973 40.6191 27.5604C40.5981 29.2193 41.2139 30.9473 41.7066 32.328C41.83 32.6739 41.9465 33.0006 42.0518 33.3163C42.5281 34.7455 42.4781 35.5808 42.378 36H33C32.4207 35.9996 31.8537 36.1671 31.3676 36.4821C30.8814 36.7971 30.497 37.2463 30.2607 37.7752C30.0244 38.3041 29.9464 38.8902 30.0362 39.4625C30.1259 40.0348 30.3795 40.5688 30.7664 41C30.2725 41.549 29.9995 42.2615 30 43H4.02375C4.54838 31.3315 14.2044 22 26 22ZM32 39C32.0003 38.7349 32.1058 38.4807 32.2932 38.2932C32.4807 38.1058 32.7349 38.0003 33 38H41C41.2652 38 41.5196 38.1054 41.7071 38.2929C41.8946 38.4804 42 38.7348 42 39C42 39.2652 41.8946 39.5196 41.7071 39.7071C41.5196 39.8947 41.2652 40 41 40H33C32.7349 39.9997 32.4807 39.8943 32.2932 39.7068C32.1058 39.5193 32.0003 39.2651 32 39ZM32 43C32.0003 42.7349 32.1058 42.4807 32.2932 42.2932C32.4807 42.1058 32.7349 42.0003 33 42H41C41.2652 42 41.5196 42.1054 41.7071 42.2929C41.8946 42.4804 42 42.7348 42 43C42 43.2652 41.8946 43.5196 41.7071 43.7071C41.5196 43.8947 41.2652 44 41 44H33C32.7349 43.9997 32.4807 43.8943 32.2932 43.7068C32.1058 43.5193 32.0003 43.2651 32 43ZM3 47C2.73487 46.9997 2.48069 46.8943 2.29322 46.7068C2.10575 46.5193 2.0003 46.2651 2 46V45H30.7664C30.2725 45.549 29.9995 46.2615 30 47H3ZM33 46H41C41.2652 46 41.5196 46.1054 41.7071 46.2929C41.8946 46.4804 42 46.7348 42 47C42 47.2652 41.8946 47.5196 41.7071 47.7071C41.5196 47.8947 41.2652 48 41 48H33C32.7348 48 32.4804 47.8947 32.2929 47.7071C32.1054 47.5196 32 47.2652 32 47C32 46.7348 32.1054 46.4804 32.2929 46.2929C32.4804 46.1054 32.7348 46 33 46ZM35 52C34.7348 52 34.4804 51.8947 34.2929 51.7071C34.1054 51.5196 34 51.2652 34 51C34 50.7348 34.1054 50.4804 34.2929 50.2929C34.4804 50.1054 34.7348 50 35 50H41C41.2652 50 41.5196 50.1054 41.7071 50.2929C41.8946 50.4804 42 50.7348 42 51C42 51.2652 41.8946 51.5196 41.7071 51.7071C41.5196 51.8947 41.2652 52 41 52H35ZM43.828 52C44.0078 51.4927 44.0475 50.9463 43.9429 50.4184C43.8383 49.8904 43.5933 49.4004 43.2336 49C43.727 48.4507 44 47.7384 44 47C44 46.2616 43.727 45.5493 43.2336 45C43.3723 44.8451 43.4947 44.6762 43.5986 44.4961C44.8319 45.1343 46.8926 46 49 46C49.2652 46 49.5196 45.8947 49.7071 45.7071C49.8946 45.5196 50 45.2652 50 45C50 44.7348 49.8946 44.4804 49.7071 44.2929C49.5196 44.1054 49.2652 44 49 44C46.9323 44 44.7943 42.8966 43.94 42.4021C43.8335 41.8802 43.5897 41.3962 43.2336 41C43.6292 40.5595 43.8853 40.0115 43.9696 39.4255C44.0538 38.8394 43.9624 38.2415 43.7069 37.7074C43.9469 37.4674 45.0863 36.0974 43.9484 32.684C43.8366 32.3488 43.7168 32.0124 43.5898 31.6565C42.5881 28.8475 42.0295 26.8036 43.5684 25.4679L48.0849 35.4041L50.042 39.9708C50.445 40.9128 51.1287 41.7077 52 42.247V52H43.828ZM58 53H54V41H58V53Z" fill="#F37321"/>
<path d="M32.4515 5.65518C32.394 5.47722 32.2877 5.31895 32.1447 5.19837C32.0017 5.0778 31.8278 4.99973 31.6426 4.97306L28.3613 4.49993L26.8953 1.55444C26.8124 1.3879 26.6847 1.24778 26.5265 1.14983C26.3684 1.05189 26.186 1 26 1C25.814 1 25.6317 1.05189 25.4735 1.14983C25.3154 1.24778 25.1877 1.3879 25.1048 1.55444L23.6388 4.49993L20.3574 4.97281C20.1723 4.99949 19.9983 5.07756 19.8553 5.19815C19.7124 5.31874 19.6061 5.47701 19.5485 5.65499C19.491 5.83297 19.4845 6.02351 19.5299 6.20498C19.5752 6.38644 19.6705 6.55156 19.805 6.68156L22.175 8.97231L21.616 12.2046C21.5843 12.3882 21.6045 12.5771 21.6744 12.75C21.7443 12.9228 21.8611 13.0726 22.0117 13.1825C22.1622 13.2925 22.3405 13.3581 22.5264 13.3721C22.7122 13.3861 22.8983 13.3478 23.0636 13.2617L26.0011 11.7304L28.9386 13.2617C29.1039 13.3478 29.29 13.3861 29.4759 13.3721C29.6618 13.3581 29.8401 13.2925 29.9906 13.1825C30.1412 13.0726 30.258 12.9228 30.3279 12.75C30.3978 12.5771 30.418 12.3882 30.3863 12.2046L29.825 8.97231L32.195 6.68181C32.3295 6.5518 32.4249 6.38668 32.4702 6.2052C32.5155 6.02373 32.5091 5.83317 32.4515 5.65518ZM28.055 7.90218C27.9378 8.01552 27.85 8.1558 27.7994 8.31082C27.7488 8.46583 27.7369 8.63087 27.7646 8.79156L28.0694 10.5541L26.4624 9.71656C26.3196 9.64207 26.1609 9.60318 25.9999 9.60318C25.8388 9.60318 25.6802 9.64207 25.5374 9.71656L23.9304 10.5541L24.2351 8.79156C24.2629 8.63087 24.251 8.46583 24.2004 8.31082C24.1498 8.1558 24.062 8.01552 23.9448 7.90218L22.6614 6.66156L24.4428 6.40493C24.6029 6.38186 24.755 6.32028 24.8861 6.22549C25.0172 6.13069 25.1233 6.00551 25.1954 5.86068L26 4.24443L26.8044 5.86068C26.8765 6.00551 26.9826 6.13069 27.1137 6.22549C27.2448 6.32028 27.3969 6.38186 27.557 6.40493L29.3384 6.66156L28.055 7.90218Z" stroke="#F37321" stroke-width="0.2"/>
<path d="M45.9515 9.65518C45.894 9.47721 45.7877 9.31895 45.6447 9.19837C45.5017 9.0778 45.3278 8.99973 45.1426 8.97306L41.8613 8.49993L40.3953 5.55443C40.3124 5.38789 40.1847 5.24778 40.0265 5.14983C39.8684 5.05189 39.686 5 39.5 5C39.314 5 39.1316 5.05189 38.9735 5.14983C38.8153 5.24778 38.6876 5.38789 38.6048 5.55443L37.1388 8.49993L33.8574 8.97281C33.6722 8.99949 33.4983 9.07756 33.3553 9.19815C33.2123 9.31874 33.106 9.47701 33.0485 9.65499C32.991 9.83296 32.9845 10.0235 33.0299 10.205C33.0752 10.3864 33.1705 10.5516 33.305 10.6816L35.675 12.9723L35.116 16.2046C35.0842 16.3882 35.1045 16.5772 35.1744 16.75C35.2443 16.9228 35.3611 17.0726 35.5116 17.1825C35.6622 17.2925 35.8405 17.3581 36.0263 17.3721C36.2122 17.3861 36.3983 17.3478 36.5636 17.2617L39.5011 15.7304L42.4386 17.2617C42.6039 17.3478 42.79 17.3861 42.9759 17.3721C43.1618 17.3581 43.3401 17.2925 43.4906 17.1825C43.6412 17.0726 43.758 16.9228 43.8279 16.75C43.8978 16.5772 43.918 16.3882 43.8863 16.2046L43.325 12.9723L45.6945 10.6818C45.8291 10.5519 45.9245 10.3868 45.97 10.2053C46.0154 10.0238 46.009 9.83321 45.9515 9.65518ZM41.555 11.9022C41.4378 12.0155 41.35 12.1558 41.2994 12.3108C41.2488 12.4658 41.2369 12.6309 41.2646 12.7916L41.5694 14.5541L39.9624 13.7166C39.8196 13.6421 39.6609 13.6032 39.4999 13.6032C39.3388 13.6032 39.1802 13.6421 39.0374 13.7166L37.4304 14.5541L37.7351 12.7916C37.7629 12.6309 37.751 12.4658 37.7004 12.3108C37.6498 12.1558 37.562 12.0155 37.4448 11.9022L36.1614 10.6616L37.9428 10.4049C38.1029 10.3819 38.255 10.3203 38.3861 10.2255C38.5172 10.1307 38.6233 10.0055 38.6954 9.86068L39.5 8.24443L40.3044 9.86068C40.3765 10.0055 40.4826 10.1307 40.6137 10.2255C40.7448 10.3203 40.8969 10.3819 41.057 10.4049L42.8384 10.6616L41.555 11.9022Z" stroke="#F37321" stroke-width="0.2"/>
<path d="M18.9515 10.2802C18.894 10.1022 18.7877 9.94395 18.6447 9.82337C18.5017 9.7028 18.3278 9.62473 18.1426 9.59806L14.8613 9.12493L13.3953 6.17943C13.3124 6.01289 13.1847 5.87278 13.0265 5.77483C12.8684 5.67689 12.686 5.625 12.5 5.625C12.314 5.625 12.1317 5.67689 11.9735 5.77483C11.8154 5.87278 11.6877 6.01289 11.6048 6.17943L10.1388 9.12493L6.85741 9.59781C6.67228 9.62449 6.49834 9.70256 6.35536 9.82315C6.21237 9.94374 6.10608 10.102 6.04855 10.28C5.99101 10.458 5.98455 10.6485 6.02989 10.83C6.07523 11.0114 6.17055 11.1766 6.30503 11.3066L8.67503 13.5973L8.11603 16.8296C8.08427 17.0132 8.10449 17.2022 8.1744 17.375C8.24431 17.5478 8.36113 17.6976 8.51167 17.8075C8.66221 17.9175 8.84049 17.9831 9.02638 17.9971C9.21226 18.0111 9.39836 17.9728 9.56366 17.8867L12.5011 16.3554L15.4386 17.8867C15.6039 17.9728 15.79 18.0111 15.9759 17.9971C16.1618 17.9831 16.3401 17.9175 16.4906 17.8075C16.6412 17.6976 16.758 17.5478 16.8279 17.375C16.8978 17.2022 16.918 17.0132 16.8863 16.8296L16.325 13.5973L18.6945 11.3068C18.8291 11.1769 18.9245 11.0118 18.97 10.8303C19.0154 10.6488 19.009 10.4582 18.9515 10.2802ZM14.555 12.5272C14.4378 12.6405 14.35 12.7808 14.2994 12.9358C14.2488 13.0908 14.2369 13.2559 14.2646 13.4166L14.5694 15.1791L12.9624 14.3416C12.8196 14.2671 12.6609 14.2282 12.4999 14.2282C12.3389 14.2282 12.1802 14.2671 12.0374 14.3416L10.4304 15.1791L10.7351 13.4166C10.7629 13.2559 10.751 13.0908 10.7004 12.9358C10.6498 12.7808 10.562 12.6405 10.4448 12.5272L9.16141 11.2866L10.9428 11.0299C11.1029 11.0069 11.255 10.9453 11.3861 10.8505C11.5172 10.7557 11.6233 10.6305 11.6954 10.4857L12.5 8.86943L13.3044 10.4857C13.3765 10.6305 13.4826 10.7557 13.6137 10.8505C13.7448 10.9453 13.8969 11.0069 14.057 11.0299L15.8384 11.2866L14.555 12.5272Z" stroke="#F37321" stroke-width="0.2"/>
<path d="M59 39H53C52.8088 39.0001 52.6217 39.055 52.4608 39.1582C52.2999 39.2614 52.172 39.4086 52.0923 39.5824C52.0116 39.4546 51.9408 39.3209 51.8804 39.1824L49.9191 34.6063C49.9164 34.5995 49.9134 34.5929 49.9104 34.5863L44.9104 23.5863C44.8547 23.4639 44.775 23.354 44.6759 23.2631C44.5768 23.1723 44.4604 23.1023 44.3337 23.0575C44.207 23.0126 44.0725 22.9938 43.9383 23.0021C43.8041 23.0104 43.673 23.0456 43.5528 23.1058C42.3229 23.7206 41.5606 24.4996 41.1222 25.3641C37.6468 22.5361 33.4462 20.7423 29 20.1875V18H30C30.2652 18 30.5196 17.8947 30.7071 17.7071C30.8946 17.5196 31 17.2652 31 17C31 16.7348 30.8946 16.4804 30.7071 16.2929C30.5196 16.1054 30.2652 16 30 16H22C21.7348 16 21.4804 16.1054 21.2929 16.2929C21.1054 16.4804 21 16.7348 21 17C21 17.2652 21.1054 17.5196 21.2929 17.7071C21.4804 17.8947 21.7348 18 22 18H23V20.1875C11.5014 21.6274 2.50725 31.2343 2.02238 43H1C0.734784 43 0.48043 43.1054 0.292893 43.2929C0.105357 43.4804 0 43.7348 0 44V46C0.000893291 46.7954 0.317251 47.5579 0.879666 48.1203C1.44208 48.6828 2.20462 48.9991 3 49H30.7664C31.1521 49.4311 31.6541 49.7416 32.2121 49.8943C32.0313 50.3492 31.9646 50.8415 32.0178 51.3282C32.0711 51.8149 32.2428 52.2811 32.5178 52.6861C32.7928 53.0911 33.1628 53.4226 33.5955 53.6517C34.0282 53.8807 34.5104 54.0003 35 54H52C52 54.2652 52.1054 54.5196 52.2929 54.7071C52.4804 54.8947 52.7348 55 53 55H59C59.2652 55 59.5196 54.8947 59.7071 54.7071C59.8946 54.5196 60 54.2652 60 54V40C60 39.7348 59.8946 39.4804 59.7071 39.2929C59.5196 39.1054 59.2652 39 59 39ZM25 18H27V20.0218C26.6676 20.0081 26.3343 20 26 20C25.6658 20 25.3319 20.0088 25 20.0224V18ZM26 22C31.3908 21.9936 36.5952 23.973 40.6191 27.5604C40.5981 29.2193 41.2139 30.9473 41.7066 32.328C41.83 32.6739 41.9465 33.0006 42.0518 33.3163C42.5281 34.7455 42.4781 35.5808 42.378 36H33C32.4207 35.9996 31.8537 36.1671 31.3676 36.4821C30.8814 36.7971 30.497 37.2463 30.2607 37.7752C30.0244 38.3041 29.9464 38.8902 30.0362 39.4625C30.1259 40.0348 30.3795 40.5688 30.7664 41C30.2725 41.549 29.9995 42.2615 30 43H4.02375C4.54838 31.3315 14.2044 22 26 22ZM32 39C32.0003 38.7349 32.1058 38.4807 32.2932 38.2932C32.4807 38.1058 32.7349 38.0003 33 38H41C41.2652 38 41.5196 38.1054 41.7071 38.2929C41.8946 38.4804 42 38.7348 42 39C42 39.2652 41.8946 39.5196 41.7071 39.7071C41.5196 39.8947 41.2652 40 41 40H33C32.7349 39.9997 32.4807 39.8943 32.2932 39.7068C32.1058 39.5193 32.0003 39.2651 32 39ZM32 43C32.0003 42.7349 32.1058 42.4807 32.2932 42.2932C32.4807 42.1058 32.7349 42.0003 33 42H41C41.2652 42 41.5196 42.1054 41.7071 42.2929C41.8946 42.4804 42 42.7348 42 43C42 43.2652 41.8946 43.5196 41.7071 43.7071C41.5196 43.8947 41.2652 44 41 44H33C32.7349 43.9997 32.4807 43.8943 32.2932 43.7068C32.1058 43.5193 32.0003 43.2651 32 43ZM3 47C2.73487 46.9997 2.48069 46.8943 2.29322 46.7068C2.10575 46.5193 2.0003 46.2651 2 46V45H30.7664C30.2725 45.549 29.9995 46.2615 30 47H3ZM33 46H41C41.2652 46 41.5196 46.1054 41.7071 46.2929C41.8946 46.4804 42 46.7348 42 47C42 47.2652 41.8946 47.5196 41.7071 47.7071C41.5196 47.8947 41.2652 48 41 48H33C32.7348 48 32.4804 47.8947 32.2929 47.7071C32.1054 47.5196 32 47.2652 32 47C32 46.7348 32.1054 46.4804 32.2929 46.2929C32.4804 46.1054 32.7348 46 33 46ZM35 52C34.7348 52 34.4804 51.8947 34.2929 51.7071C34.1054 51.5196 34 51.2652 34 51C34 50.7348 34.1054 50.4804 34.2929 50.2929C34.4804 50.1054 34.7348 50 35 50H41C41.2652 50 41.5196 50.1054 41.7071 50.2929C41.8946 50.4804 42 50.7348 42 51C42 51.2652 41.8946 51.5196 41.7071 51.7071C41.5196 51.8947 41.2652 52 41 52H35ZM43.828 52C44.0078 51.4927 44.0475 50.9463 43.9429 50.4184C43.8383 49.8904 43.5933 49.4004 43.2336 49C43.727 48.4507 44 47.7384 44 47C44 46.2616 43.727 45.5493 43.2336 45C43.3723 44.8451 43.4947 44.6762 43.5986 44.4961C44.8319 45.1343 46.8926 46 49 46C49.2652 46 49.5196 45.8947 49.7071 45.7071C49.8946 45.5196 50 45.2652 50 45C50 44.7348 49.8946 44.4804 49.7071 44.2929C49.5196 44.1054 49.2652 44 49 44C46.9323 44 44.7943 42.8966 43.94 42.4021C43.8335 41.8802 43.5897 41.3962 43.2336 41C43.6292 40.5595 43.8853 40.0115 43.9696 39.4255C44.0538 38.8394 43.9624 38.2415 43.7069 37.7074C43.9469 37.4674 45.0863 36.0974 43.9484 32.684C43.8366 32.3488 43.7168 32.0124 43.5898 31.6565C42.5881 28.8475 42.0295 26.8036 43.5684 25.4679L48.0849 35.4041L50.042 39.9708C50.445 40.9128 51.1287 41.7077 52 42.247V52H43.828ZM58 53H54V41H58V53Z" stroke="#F37321" stroke-width="0.2"/>
</g>
<defs>
<clipPath id="clip0_23:119">
<rect width="60" height="56" fill="white"/>
</clipPath>
</defs>
</svg>
