<svg width="60" height="60" viewBox="0 0 60 60" fill="none" xmlns="http://www.w3.org/2000/svg">
<g clip-path="url(#clip0_23:74)">
<path d="M10.0033 44.9973C9.7381 44.9973 9.48376 45.1027 9.29623 45.2902C9.10871 45.4777 9.00336 45.7321 9.00336 45.9973V51.9969C9.00336 52.2621 9.10871 52.5164 9.29623 52.704C9.48376 52.8915 9.7381 52.9968 10.0033 52.9968C10.2685 52.9968 10.5228 52.8915 10.7104 52.704C10.8979 52.5164 11.0032 52.2621 11.0032 51.9969V45.9973C11.0032 45.7321 10.8979 45.4777 10.7104 45.2902C10.5228 45.1027 10.2685 44.9973 10.0033 44.9973Z" fill="#F37321"/>
<path d="M14.0031 44.9973C13.7379 44.9973 13.4835 45.1027 13.296 45.2902C13.1085 45.4777 13.0031 45.7321 13.0031 45.9973V51.9969C13.0031 52.2621 13.1085 52.5164 13.296 52.704C13.4835 52.8915 13.7379 52.9968 14.0031 52.9968C14.2683 52.9968 14.5226 52.8915 14.7101 52.704C14.8977 52.5164 15.003 52.2621 15.003 51.9969V45.9973C15.003 45.7321 14.8977 45.4777 14.7101 45.2902C14.5226 45.1027 14.2683 44.9973 14.0031 44.9973Z" fill="#F37321"/>
<path d="M18.0028 34.998C17.7376 34.998 17.4833 35.1034 17.2958 35.2909C17.1082 35.4784 17.0029 35.7328 17.0029 35.998V41.9976C17.0029 42.2628 17.1082 42.5171 17.2958 42.7047C17.4833 42.8922 17.7376 42.9975 18.0028 42.9975C18.268 42.9975 18.5224 42.8922 18.7099 42.7047C18.8974 42.5171 19.0028 42.2628 19.0028 41.9976V35.998C19.0028 35.7328 18.8974 35.4784 18.7099 35.2909C18.5224 35.1034 18.268 34.998 18.0028 34.998Z" fill="#F37321"/>
<path d="M18.0028 44.9973C17.7376 44.9973 17.4833 45.1027 17.2958 45.2902C17.1082 45.4777 17.0029 45.7321 17.0029 45.9973V51.9969C17.0029 52.2621 17.1082 52.5164 17.2958 52.704C17.4833 52.8915 17.7376 52.9968 18.0028 52.9968C18.268 52.9968 18.5224 52.8915 18.7099 52.704C18.8974 52.5164 19.0028 52.2621 19.0028 51.9969V45.9973C19.0028 45.7321 18.8974 45.4777 18.7099 45.2902C18.5224 45.1027 18.268 44.9973 18.0028 44.9973Z" fill="#F37321"/>
<path d="M22.0026 34.998C21.7374 34.998 21.483 35.1034 21.2955 35.2909C21.108 35.4784 21.0026 35.7328 21.0026 35.998V41.9976C21.0026 42.2628 21.108 42.5171 21.2955 42.7047C21.483 42.8922 21.7374 42.9975 22.0026 42.9975C22.2678 42.9975 22.5221 42.8922 22.7097 42.7047C22.8972 42.5171 23.0025 42.2628 23.0025 41.9976V35.998C23.0025 35.7328 22.8972 35.4784 22.7097 35.2909C22.5221 35.1034 22.2678 34.998 22.0026 34.998Z" fill="#F37321"/>
<path d="M22.0026 44.9973C21.7374 44.9973 21.483 45.1027 21.2955 45.2902C21.108 45.4777 21.0026 45.7321 21.0026 45.9973V51.9969C21.0026 52.2621 21.108 52.5164 21.2955 52.704C21.483 52.8915 21.7374 52.9968 22.0026 52.9968C22.2678 52.9968 22.5221 52.8915 22.7097 52.704C22.8972 52.5164 23.0025 52.2621 23.0025 51.9969V45.9973C23.0025 45.7321 22.8972 45.4777 22.7097 45.2902C22.5221 45.1027 22.2678 44.9973 22.0026 44.9973Z" fill="#F37321"/>
<path d="M38.0016 34.998C37.7364 34.998 37.4821 35.1034 37.2946 35.2909C37.107 35.4784 37.0017 35.7328 37.0017 35.998V41.9976C37.0017 42.2628 37.107 42.5171 37.2946 42.7047C37.4821 42.8922 37.7364 42.9975 38.0016 42.9975C38.2668 42.9975 38.5212 42.8922 38.7087 42.7047C38.8962 42.5171 39.0016 42.2628 39.0016 41.9976V35.998C39.0016 35.7328 38.8962 35.4784 38.7087 35.2909C38.5212 35.1034 38.2668 34.998 38.0016 34.998Z" fill="#F37321"/>
<path d="M38.0016 44.9973C37.7364 44.9973 37.4821 45.1027 37.2946 45.2902C37.107 45.4777 37.0017 45.7321 37.0017 45.9973V51.9969C37.0017 52.2621 37.107 52.5164 37.2946 52.704C37.4821 52.8915 37.7364 52.9968 38.0016 52.9968C38.2668 52.9968 38.5212 52.8915 38.7087 52.704C38.8962 52.5164 39.0016 52.2621 39.0016 51.9969V45.9973C39.0016 45.7321 38.8962 45.4777 38.7087 45.2902C38.5212 45.1027 38.2668 44.9973 38.0016 44.9973Z" fill="#F37321"/>
<path d="M42.0014 34.998C41.7362 34.998 41.4818 35.1034 41.2943 35.2909C41.1068 35.4784 41.0015 35.7328 41.0015 35.998V41.9976C41.0015 42.2628 41.1068 42.5171 41.2943 42.7047C41.4818 42.8922 41.7362 42.9975 42.0014 42.9975C42.2666 42.9975 42.5209 42.8922 42.7085 42.7047C42.896 42.5171 43.0013 42.2628 43.0013 41.9976V35.998C43.0013 35.7328 42.896 35.4784 42.7085 35.2909C42.5209 35.1034 42.2666 34.998 42.0014 34.998Z" fill="#F37321"/>
<path d="M42.0014 44.9973C41.7362 44.9973 41.4818 45.1027 41.2943 45.2902C41.1068 45.4777 41.0015 45.7321 41.0015 45.9973V51.9969C41.0015 52.2621 41.1068 52.5164 41.2943 52.704C41.4818 52.8915 41.7362 52.9968 42.0014 52.9968C42.2666 52.9968 42.5209 52.8915 42.7085 52.704C42.896 52.5164 43.0013 52.2621 43.0013 51.9969V45.9973C43.0013 45.7321 42.896 45.4777 42.7085 45.2902C42.5209 45.1027 42.2666 44.9973 42.0014 44.9973Z" fill="#F37321"/>
<path d="M46.0012 44.9973C45.736 44.9973 45.4816 45.1027 45.2941 45.2902C45.1066 45.4777 45.0012 45.7321 45.0012 45.9973V51.9969C45.0012 52.2621 45.1066 52.5164 45.2941 52.704C45.4816 52.8915 45.736 52.9968 46.0012 52.9968C46.2664 52.9968 46.5207 52.8915 46.7082 52.704C46.8957 52.5164 47.0011 52.2621 47.0011 51.9969V45.9973C47.0011 45.7321 46.8957 45.4777 46.7082 45.2902C46.5207 45.1027 46.2664 44.9973 46.0012 44.9973Z" fill="#F37321"/>
<path d="M50.0009 44.9973C49.7357 44.9973 49.4814 45.1027 49.2938 45.2902C49.1063 45.4777 49.001 45.7321 49.001 45.9973V51.9969C49.001 52.2621 49.1063 52.5164 49.2938 52.704C49.4814 52.8915 49.7357 52.9968 50.0009 52.9968C50.2661 52.9968 50.5205 52.8915 50.708 52.704C50.8955 52.5164 51.0009 52.2621 51.0009 51.9969V45.9973C51.0009 45.7321 50.8955 45.4777 50.708 45.2902C50.5205 45.1027 50.2661 44.9973 50.0009 44.9973Z" fill="#F37321"/>
<path d="M30.0021 34.998C29.7369 34.998 29.4826 35.1034 29.295 35.2909C29.1075 35.4784 29.0022 35.7328 29.0022 35.998V41.9976C29.0022 42.2628 29.1075 42.5171 29.295 42.7047C29.4826 42.8922 29.7369 42.9975 30.0021 42.9975C30.2673 42.9975 30.5217 42.8922 30.7092 42.7047C30.8967 42.5171 31.0021 42.2628 31.0021 41.9976V35.998C31.0021 35.7328 30.8967 35.4784 30.7092 35.2909C30.5217 35.1034 30.2673 34.998 30.0021 34.998Z" fill="#F37321"/>
<path d="M30.0021 44.9973C29.7369 44.9973 29.4826 45.1027 29.295 45.2902C29.1075 45.4777 29.0022 45.7321 29.0022 45.9973V51.9969C29.0022 52.2621 29.1075 52.5164 29.295 52.704C29.4826 52.8915 29.7369 52.9968 30.0021 52.9968C30.2673 52.9968 30.5217 52.8915 30.7092 52.704C30.8967 52.5164 31.0021 52.2621 31.0021 51.9969V45.9973C31.0021 45.7321 30.8967 45.4777 30.7092 45.2902C30.5217 45.1027 30.2673 44.9973 30.0021 44.9973Z" fill="#F37321"/>
<path d="M26.0023 34.998C25.7372 34.998 25.4828 35.1034 25.2953 35.2909C25.1078 35.4784 25.0024 35.7328 25.0024 35.998V41.9976C25.0024 42.2628 25.1078 42.5171 25.2953 42.7047C25.4828 42.8922 25.7372 42.9975 26.0023 42.9975C26.2676 42.9975 26.5219 42.8922 26.7094 42.7047C26.8969 42.5171 27.0023 42.2628 27.0023 41.9976V35.998C27.0023 35.7328 26.8969 35.4784 26.7094 35.2909C26.5219 35.1034 26.2676 34.998 26.0023 34.998Z" fill="#F37321"/>
<path d="M26.0023 44.9973C25.7372 44.9973 25.4828 45.1027 25.2953 45.2902C25.1078 45.4777 25.0024 45.7321 25.0024 45.9973V51.9969C25.0024 52.2621 25.1078 52.5164 25.2953 52.704C25.4828 52.8915 25.7372 52.9968 26.0023 52.9968C26.2676 52.9968 26.5219 52.8915 26.7094 52.704C26.8969 52.5164 27.0023 52.2621 27.0023 51.9969V45.9973C27.0023 45.7321 26.8969 45.4777 26.7094 45.2902C26.5219 45.1027 26.2676 44.9973 26.0023 44.9973Z" fill="#F37321"/>
<path d="M34.0019 34.998C33.7367 34.998 33.4823 35.1034 33.2948 35.2909C33.1073 35.4784 33.0019 35.7328 33.0019 35.998V41.9976C33.0019 42.2628 33.1073 42.5171 33.2948 42.7047C33.4823 42.8922 33.7367 42.9975 34.0019 42.9975C34.2671 42.9975 34.5214 42.8922 34.7089 42.7047C34.8965 42.5171 35.0018 42.2628 35.0018 41.9976V35.998C35.0018 35.7328 34.8965 35.4784 34.7089 35.2909C34.5214 35.1034 34.2671 34.998 34.0019 34.998Z" fill="#F37321"/>
<path d="M34.0019 44.9973C33.7367 44.9973 33.4823 45.1027 33.2948 45.2902C33.1073 45.4777 33.0019 45.7321 33.0019 45.9973V51.9969C33.0019 52.2621 33.1073 52.5164 33.2948 52.704C33.4823 52.8915 33.7367 52.9968 34.0019 52.9968C34.2671 52.9968 34.5214 52.8915 34.7089 52.704C34.8965 52.5164 35.0018 52.2621 35.0018 51.9969V45.9973C35.0018 45.7321 34.8965 45.4777 34.7089 45.2902C34.5214 45.1027 34.2671 44.9973 34.0019 44.9973Z" fill="#F37321"/>
<path d="M57.6479 43.8784L59.1342 31.9882C59.3738 31.9558 59.5935 31.8376 59.7527 31.6556C59.9119 31.4736 59.9998 31.2401 60 30.9983V24.9986C60 24.7334 59.8946 24.4791 59.7071 24.2916C59.5196 24.104 59.2653 23.9987 59.0001 23.9987H56.4676C57.2046 23.1771 57.7005 22.1679 57.9007 21.0825C58.1008 19.9971 57.9975 18.8775 57.6021 17.847C57.2066 16.8165 56.5344 15.9152 55.6595 15.2423C54.7846 14.5695 53.7409 14.1512 52.6434 14.0335C53.078 12.8293 53.1159 11.5176 52.7514 10.2903C52.387 9.06303 51.6394 7.98455 50.6181 7.21264C49.5967 6.44073 48.3551 6.01589 47.075 6.00027C45.7948 5.98465 44.5433 6.37906 43.5034 7.12582C42.0161 5.17219 39.625 3.99988 37.0014 3.99988C33.8669 3.99988 31.088 5.67828 29.7778 8.269C28.8801 7.9905 27.9295 7.92687 27.0026 8.08325C26.0758 8.23962 25.1987 8.61163 24.442 9.16926C23.6853 9.72689 23.0703 10.4545 22.6465 11.2935C22.2227 12.1325 22.0021 13.0593 22.0023 13.9993C22.0023 14.0668 22.0045 14.134 22.0068 14.2014C21.313 14.3419 20.636 14.5556 19.9873 14.8389C19.5226 13.9513 18.9133 13.1473 18.1844 12.4599C16.9479 11.2847 16.1826 9.69882 16.0319 7.99964H17.0026C17.2678 7.99964 17.5221 7.89429 17.7096 7.70677C17.8972 7.51924 18.0025 7.2649 18.0025 6.9997V4.99982C18.0016 4.20449 17.6853 3.442 17.1229 2.87961C16.5605 2.31723 15.798 2.00089 15.0027 2H9.00305C8.20772 2.00089 7.44523 2.31723 6.88285 2.87961C6.32046 3.442 6.00413 4.20449 6.00323 4.99982V6.9997C6.00323 7.2649 6.10858 7.51924 6.29611 7.70677C6.48363 7.89429 6.73797 7.99964 7.00317 7.99964H7.97386C7.82322 9.69887 7.05788 11.2848 5.82137 12.46C4.92748 13.2978 4.21589 14.3108 3.73104 15.4359C3.2462 16.5609 2.9985 17.7739 3.00341 18.999C3.0029 19.7374 3.2759 20.4499 3.76974 20.9989C3.2759 21.5479 3.0029 22.2603 3.00341 22.9987V23.9987H1.00353C0.738331 23.9987 0.483992 24.104 0.296467 24.2916C0.108942 24.4791 0.00359171 24.7334 0.00359171 24.9986V30.9983C0.00382492 31.2401 0.0916693 31.4736 0.250858 31.6556C0.410048 31.8376 0.629797 31.9558 0.869415 31.9882L2.35995 43.9125L0.37032 47.5598C0.104386 48.0435 -0.0226292 48.5914 0.00330717 49.1429C0.0292435 49.6943 0.207122 50.2279 0.517289 50.6845C0.827455 51.1412 1.25783 51.5033 1.76087 51.7307C2.26391 51.9581 2.82002 52.042 3.36777 51.9731L3.69937 54.6267C3.93948 56.5481 5.64675 57.9966 7.67088 57.9966H52.3327C54.3567 57.9966 56.0641 56.5481 56.3042 54.6272L56.6411 51.9323C57.2607 52.0097 57.889 51.8894 58.4362 51.5884C58.7821 51.3998 59.0874 51.1449 59.3347 50.8382C59.582 50.5316 59.7665 50.1793 59.8777 49.8013C59.9888 49.4234 60.0245 49.0273 59.9825 48.6356C59.9406 48.2438 59.8219 47.8642 59.6333 47.5184L57.6479 43.8784ZM58.0001 25.9986V29.9983H50.077L47.8952 25.9986H58.0001ZM57.1173 31.9982L56.0081 40.8727L51.1678 31.9982H57.1173ZM28.0019 9.99952C28.6466 9.99774 29.2819 10.1536 29.8526 10.4536C29.9808 10.5208 30.1221 10.5594 30.2667 10.5666C30.4113 10.5738 30.5557 10.5496 30.69 10.4955C30.8243 10.4415 30.9453 10.3589 31.0446 10.2535C31.1438 10.1481 31.219 10.0225 31.265 9.88515C32.0423 7.56117 34.3479 5.99976 37.0014 5.99976C39.2887 5.99976 41.4105 7.22194 42.4071 9.11332C42.4821 9.25567 42.5903 9.37782 42.7226 9.4694C42.8549 9.56097 43.0073 9.61927 43.167 9.63935C43.3266 9.65942 43.4887 9.64067 43.6396 9.58469C43.7904 9.52872 43.9256 9.43716 44.0335 9.31781C44.5754 8.7182 45.2863 8.29684 46.0725 8.10926C46.8587 7.92167 47.6832 7.97667 48.4375 8.26699C49.1918 8.55732 49.8405 9.06935 50.298 9.73563C50.7555 10.4019 51.0005 11.1912 51.0005 11.9994C51.0038 12.9076 50.6943 13.7893 50.1242 14.4963C49.9948 14.658 49.9188 14.8559 49.9066 15.0626C49.8945 15.2694 49.9469 15.4749 50.0566 15.6506C50.1663 15.8263 50.3278 15.9636 50.5189 16.0435C50.71 16.1235 50.9212 16.1421 51.1233 16.0969C51.6722 15.9733 52.2409 15.9669 52.7925 16.078C53.344 16.1892 53.8659 16.4155 54.324 16.7421C54.7821 17.0687 55.1662 17.4883 55.4511 17.9735C55.736 18.4586 55.9154 18.9984 55.9775 19.5576C56.0395 20.1168 55.9829 20.6828 55.8114 21.2186C55.6398 21.7545 55.3571 22.2481 54.9818 22.6672C54.6064 23.0863 54.1469 23.4216 53.6332 23.651C53.1195 23.8804 52.5631 23.9989 52.0005 23.9987H49.5415C49.0525 22.4446 48.1913 21.0336 47.0328 19.8882C45.8742 18.7428 44.4534 17.8977 42.8938 17.4266C41.3343 16.9554 39.6833 16.8723 38.0843 17.1845C36.4854 17.4968 34.9869 18.1949 33.7192 19.2182C33.495 19.3996 33.2794 19.5902 33.0725 19.7898C32.2702 18.0601 30.99 16.596 29.3829 15.57C27.7758 14.544 25.9088 13.999 24.0022 13.9993C24.0033 12.9388 24.4251 11.9222 25.175 11.1723C25.9248 10.4225 26.9415 10.0007 28.0019 9.99952ZM47.4174 23.9987H32.585C33.0971 22.7391 33.9198 21.6296 34.9765 20.7739C36.3994 19.6255 38.1727 18.9992 40.0012 18.9992C41.8297 18.9992 43.603 19.6255 45.0259 20.7739C46.0826 21.6296 46.9053 22.7391 47.4174 23.9987ZM20.7107 16.7066C22.0601 16.0983 23.5516 15.8759 25.0197 16.0644C26.4878 16.2528 27.8749 16.8446 29.0269 17.7741C30.239 18.7553 31.1398 20.0677 31.6197 21.5516C31.1244 22.311 30.7346 23.1343 30.4609 23.9987H21.0023V22.9987C21.0028 22.2603 20.7298 21.5479 20.236 20.9989C20.7298 20.4499 21.0028 19.7374 21.0023 18.999C21.0032 18.2256 20.9052 17.4552 20.7107 16.7066ZM44.6679 25.9986L42.7659 27.036C42.5331 27.163 42.3603 27.3773 42.2854 27.6317C42.2106 27.8861 42.2399 28.1599 42.3669 28.3927L43.2428 29.9983H16.7836L17.6365 28.4347C17.7635 28.2019 17.7928 27.9281 17.718 27.6737C17.6432 27.4193 17.4704 27.205 17.2376 27.078L15.2587 25.9986H44.6679ZM8.00311 4.99982C8.00341 4.73471 8.10886 4.48055 8.29632 4.29308C8.48378 4.10562 8.73794 4.00018 9.00305 3.99988H15.0027C15.2678 4.00018 15.522 4.10562 15.7094 4.29308C15.8969 4.48055 16.0023 4.73471 16.0026 4.99982V5.99976H8.00311V4.99982ZM15.2813 11.9994H8.72444C9.45042 10.7829 9.88021 9.41281 9.97912 7.99964H14.0266C14.1255 9.41281 14.5553 10.7829 15.2813 11.9994ZM7.10879 13.9993H16.897C17.5662 14.6481 18.0977 15.4254 18.4595 16.2845C18.8213 17.1435 19.0059 18.0668 19.0025 18.999C19.0022 19.2641 18.8967 19.5183 18.7092 19.7057C18.5218 19.8932 18.2676 19.9986 18.0025 19.9989H6.00323C5.73812 19.9986 5.48396 19.8932 5.2965 19.7057C5.10904 19.5183 5.00359 19.2641 5.00329 18.999C4.9998 18.0668 5.18447 17.1435 5.54626 16.2844C5.90804 15.4254 6.4395 14.6481 7.10879 13.9993ZM5.00329 22.9987C5.00359 22.7336 5.10904 22.4795 5.2965 22.292C5.48396 22.1045 5.73812 21.9991 6.00323 21.9988H18.0025C18.2676 21.9991 18.5218 22.1045 18.7092 22.292C18.8967 22.4795 19.0022 22.7336 19.0025 22.9987V23.9987H5.00329V22.9987ZM2.00347 29.9983V25.9986H12.1312L9.94962 29.9983H2.00347ZM8.85869 31.9982L3.99973 40.9063L2.88617 31.9982H8.85869ZM3.88161 49.4757C3.7954 49.6336 3.66821 49.7654 3.51343 49.8572C3.35864 49.9489 3.18198 49.9973 3.00204 49.9971C2.83522 49.9973 2.67108 49.9552 2.52494 49.8748C2.29236 49.7475 2.11972 49.5333 2.0449 49.2789C1.97009 49.0246 1.99919 48.751 2.12584 48.5181L13.6464 27.3971L15.402 28.3548L3.88161 49.4757ZM54.3197 54.3792C54.2045 55.3014 53.3503 55.9968 52.3323 55.9968H7.67088C6.65332 55.9968 5.79912 55.3014 5.6835 54.3792L5.2579 50.9742C5.40378 50.8084 5.53092 50.627 5.637 50.4333L13.0028 36.9299V41.9976C13.0028 42.2628 13.1082 42.5171 13.2957 42.7047C13.4832 42.8922 13.7376 42.9975 14.0028 42.9975C14.268 42.9975 14.5223 42.8922 14.7098 42.7047C14.8973 42.5171 15.0027 42.2628 15.0027 41.9976V35.998C15.0026 35.742 14.9042 35.4958 14.7279 35.3102C14.5516 35.1247 14.3108 35.0138 14.0551 35.0006L15.6928 31.9982H44.3336L45.971 34.9995C45.7112 35.0071 45.4646 35.1156 45.2834 35.302C45.1023 35.4884 45.001 35.7381 45.0009 35.998V41.9976C45.0009 42.2628 45.1062 42.5171 45.2938 42.7047C45.4813 42.8922 45.7356 42.9975 46.0008 42.9975C46.266 42.9975 46.5204 42.8922 46.7079 42.7047C46.8954 42.5171 47.0008 42.2628 47.0008 41.9976V36.8882L54.3662 50.3914C54.4734 50.5871 54.6021 50.7702 54.7499 50.9373L54.3197 54.3792ZM57.9591 49.237C57.9034 49.4269 57.7926 49.5959 57.6407 49.7227C57.4889 49.8495 57.3029 49.9284 57.1062 49.9495C56.9095 49.9705 56.7109 49.9328 56.5357 49.841C56.3605 49.7492 56.2164 49.6075 56.1217 49.4338L44.6009 28.3129L46.3567 27.3552L57.8776 48.4761C57.9408 48.5913 57.9806 48.7178 57.9945 48.8484C58.0085 48.979 57.9965 49.1111 57.9591 49.237Z" fill="#F37321"/>
<path d="M10.0033 44.9973C9.7381 44.9973 9.48376 45.1027 9.29623 45.2902C9.10871 45.4777 9.00336 45.7321 9.00336 45.9973V51.9969C9.00336 52.2621 9.10871 52.5164 9.29623 52.704C9.48376 52.8915 9.7381 52.9968 10.0033 52.9968C10.2685 52.9968 10.5228 52.8915 10.7104 52.704C10.8979 52.5164 11.0032 52.2621 11.0032 51.9969V45.9973C11.0032 45.7321 10.8979 45.4777 10.7104 45.2902C10.5228 45.1027 10.2685 44.9973 10.0033 44.9973Z" stroke="#F37321" stroke-width="0.5"/>
<path d="M14.0031 44.9973C13.7379 44.9973 13.4835 45.1027 13.296 45.2902C13.1085 45.4777 13.0031 45.7321 13.0031 45.9973V51.9969C13.0031 52.2621 13.1085 52.5164 13.296 52.704C13.4835 52.8915 13.7379 52.9968 14.0031 52.9968C14.2683 52.9968 14.5226 52.8915 14.7101 52.704C14.8977 52.5164 15.003 52.2621 15.003 51.9969V45.9973C15.003 45.7321 14.8977 45.4777 14.7101 45.2902C14.5226 45.1027 14.2683 44.9973 14.0031 44.9973Z" stroke="#F37321" stroke-width="0.5"/>
<path d="M18.0028 34.998C17.7376 34.998 17.4833 35.1034 17.2958 35.2909C17.1082 35.4784 17.0029 35.7328 17.0029 35.998V41.9976C17.0029 42.2628 17.1082 42.5171 17.2958 42.7047C17.4833 42.8922 17.7376 42.9975 18.0028 42.9975C18.268 42.9975 18.5224 42.8922 18.7099 42.7047C18.8974 42.5171 19.0028 42.2628 19.0028 41.9976V35.998C19.0028 35.7328 18.8974 35.4784 18.7099 35.2909C18.5224 35.1034 18.268 34.998 18.0028 34.998Z" stroke="#F37321" stroke-width="0.5"/>
<path d="M18.0028 44.9973C17.7376 44.9973 17.4833 45.1027 17.2958 45.2902C17.1082 45.4777 17.0029 45.7321 17.0029 45.9973V51.9969C17.0029 52.2621 17.1082 52.5164 17.2958 52.704C17.4833 52.8915 17.7376 52.9968 18.0028 52.9968C18.268 52.9968 18.5224 52.8915 18.7099 52.704C18.8974 52.5164 19.0028 52.2621 19.0028 51.9969V45.9973C19.0028 45.7321 18.8974 45.4777 18.7099 45.2902C18.5224 45.1027 18.268 44.9973 18.0028 44.9973Z" stroke="#F37321" stroke-width="0.5"/>
<path d="M22.0026 34.998C21.7374 34.998 21.483 35.1034 21.2955 35.2909C21.108 35.4784 21.0026 35.7328 21.0026 35.998V41.9976C21.0026 42.2628 21.108 42.5171 21.2955 42.7047C21.483 42.8922 21.7374 42.9975 22.0026 42.9975C22.2678 42.9975 22.5221 42.8922 22.7097 42.7047C22.8972 42.5171 23.0025 42.2628 23.0025 41.9976V35.998C23.0025 35.7328 22.8972 35.4784 22.7097 35.2909C22.5221 35.1034 22.2678 34.998 22.0026 34.998Z" stroke="#F37321" stroke-width="0.5"/>
<path d="M22.0026 44.9973C21.7374 44.9973 21.483 45.1027 21.2955 45.2902C21.108 45.4777 21.0026 45.7321 21.0026 45.9973V51.9969C21.0026 52.2621 21.108 52.5164 21.2955 52.704C21.483 52.8915 21.7374 52.9968 22.0026 52.9968C22.2678 52.9968 22.5221 52.8915 22.7097 52.704C22.8972 52.5164 23.0025 52.2621 23.0025 51.9969V45.9973C23.0025 45.7321 22.8972 45.4777 22.7097 45.2902C22.5221 45.1027 22.2678 44.9973 22.0026 44.9973Z" stroke="#F37321" stroke-width="0.5"/>
<path d="M38.0016 34.998C37.7364 34.998 37.4821 35.1034 37.2946 35.2909C37.107 35.4784 37.0017 35.7328 37.0017 35.998V41.9976C37.0017 42.2628 37.107 42.5171 37.2946 42.7047C37.4821 42.8922 37.7364 42.9975 38.0016 42.9975C38.2668 42.9975 38.5212 42.8922 38.7087 42.7047C38.8962 42.5171 39.0016 42.2628 39.0016 41.9976V35.998C39.0016 35.7328 38.8962 35.4784 38.7087 35.2909C38.5212 35.1034 38.2668 34.998 38.0016 34.998Z" stroke="#F37321" stroke-width="0.5"/>
<path d="M38.0016 44.9973C37.7364 44.9973 37.4821 45.1027 37.2946 45.2902C37.107 45.4777 37.0017 45.7321 37.0017 45.9973V51.9969C37.0017 52.2621 37.107 52.5164 37.2946 52.704C37.4821 52.8915 37.7364 52.9968 38.0016 52.9968C38.2668 52.9968 38.5212 52.8915 38.7087 52.704C38.8962 52.5164 39.0016 52.2621 39.0016 51.9969V45.9973C39.0016 45.7321 38.8962 45.4777 38.7087 45.2902C38.5212 45.1027 38.2668 44.9973 38.0016 44.9973Z" stroke="#F37321" stroke-width="0.5"/>
<path d="M42.0014 34.998C41.7362 34.998 41.4818 35.1034 41.2943 35.2909C41.1068 35.4784 41.0015 35.7328 41.0015 35.998V41.9976C41.0015 42.2628 41.1068 42.5171 41.2943 42.7047C41.4818 42.8922 41.7362 42.9975 42.0014 42.9975C42.2666 42.9975 42.5209 42.8922 42.7085 42.7047C42.896 42.5171 43.0013 42.2628 43.0013 41.9976V35.998C43.0013 35.7328 42.896 35.4784 42.7085 35.2909C42.5209 35.1034 42.2666 34.998 42.0014 34.998Z" stroke="#F37321" stroke-width="0.5"/>
<path d="M42.0014 44.9973C41.7362 44.9973 41.4818 45.1027 41.2943 45.2902C41.1068 45.4777 41.0015 45.7321 41.0015 45.9973V51.9969C41.0015 52.2621 41.1068 52.5164 41.2943 52.704C41.4818 52.8915 41.7362 52.9968 42.0014 52.9968C42.2666 52.9968 42.5209 52.8915 42.7085 52.704C42.896 52.5164 43.0013 52.2621 43.0013 51.9969V45.9973C43.0013 45.7321 42.896 45.4777 42.7085 45.2902C42.5209 45.1027 42.2666 44.9973 42.0014 44.9973Z" stroke="#F37321" stroke-width="0.5"/>
<path d="M46.0012 44.9973C45.736 44.9973 45.4816 45.1027 45.2941 45.2902C45.1066 45.4777 45.0012 45.7321 45.0012 45.9973V51.9969C45.0012 52.2621 45.1066 52.5164 45.2941 52.704C45.4816 52.8915 45.736 52.9968 46.0012 52.9968C46.2664 52.9968 46.5207 52.8915 46.7082 52.704C46.8957 52.5164 47.0011 52.2621 47.0011 51.9969V45.9973C47.0011 45.7321 46.8957 45.4777 46.7082 45.2902C46.5207 45.1027 46.2664 44.9973 46.0012 44.9973Z" stroke="#F37321" stroke-width="0.5"/>
<path d="M50.0009 44.9973C49.7357 44.9973 49.4814 45.1027 49.2938 45.2902C49.1063 45.4777 49.001 45.7321 49.001 45.9973V51.9969C49.001 52.2621 49.1063 52.5164 49.2938 52.704C49.4814 52.8915 49.7357 52.9968 50.0009 52.9968C50.2661 52.9968 50.5205 52.8915 50.708 52.704C50.8955 52.5164 51.0009 52.2621 51.0009 51.9969V45.9973C51.0009 45.7321 50.8955 45.4777 50.708 45.2902C50.5205 45.1027 50.2661 44.9973 50.0009 44.9973Z" stroke="#F37321" stroke-width="0.5"/>
<path d="M30.0021 34.998C29.7369 34.998 29.4826 35.1034 29.295 35.2909C29.1075 35.4784 29.0022 35.7328 29.0022 35.998V41.9976C29.0022 42.2628 29.1075 42.5171 29.295 42.7047C29.4826 42.8922 29.7369 42.9975 30.0021 42.9975C30.2673 42.9975 30.5217 42.8922 30.7092 42.7047C30.8967 42.5171 31.0021 42.2628 31.0021 41.9976V35.998C31.0021 35.7328 30.8967 35.4784 30.7092 35.2909C30.5217 35.1034 30.2673 34.998 30.0021 34.998Z" stroke="#F37321" stroke-width="0.5"/>
<path d="M30.0021 44.9973C29.7369 44.9973 29.4826 45.1027 29.295 45.2902C29.1075 45.4777 29.0022 45.7321 29.0022 45.9973V51.9969C29.0022 52.2621 29.1075 52.5164 29.295 52.704C29.4826 52.8915 29.7369 52.9968 30.0021 52.9968C30.2673 52.9968 30.5217 52.8915 30.7092 52.704C30.8967 52.5164 31.0021 52.2621 31.0021 51.9969V45.9973C31.0021 45.7321 30.8967 45.4777 30.7092 45.2902C30.5217 45.1027 30.2673 44.9973 30.0021 44.9973Z" stroke="#F37321" stroke-width="0.5"/>
<path d="M26.0023 34.998C25.7372 34.998 25.4828 35.1034 25.2953 35.2909C25.1078 35.4784 25.0024 35.7328 25.0024 35.998V41.9976C25.0024 42.2628 25.1078 42.5171 25.2953 42.7047C25.4828 42.8922 25.7372 42.9975 26.0023 42.9975C26.2676 42.9975 26.5219 42.8922 26.7094 42.7047C26.8969 42.5171 27.0023 42.2628 27.0023 41.9976V35.998C27.0023 35.7328 26.8969 35.4784 26.7094 35.2909C26.5219 35.1034 26.2676 34.998 26.0023 34.998Z" stroke="#F37321" stroke-width="0.5"/>
<path d="M26.0023 44.9973C25.7372 44.9973 25.4828 45.1027 25.2953 45.2902C25.1078 45.4777 25.0024 45.7321 25.0024 45.9973V51.9969C25.0024 52.2621 25.1078 52.5164 25.2953 52.704C25.4828 52.8915 25.7372 52.9968 26.0023 52.9968C26.2676 52.9968 26.5219 52.8915 26.7094 52.704C26.8969 52.5164 27.0023 52.2621 27.0023 51.9969V45.9973C27.0023 45.7321 26.8969 45.4777 26.7094 45.2902C26.5219 45.1027 26.2676 44.9973 26.0023 44.9973Z" stroke="#F37321" stroke-width="0.5"/>
<path d="M34.0019 34.998C33.7367 34.998 33.4823 35.1034 33.2948 35.2909C33.1073 35.4784 33.0019 35.7328 33.0019 35.998V41.9976C33.0019 42.2628 33.1073 42.5171 33.2948 42.7047C33.4823 42.8922 33.7367 42.9975 34.0019 42.9975C34.2671 42.9975 34.5214 42.8922 34.7089 42.7047C34.8965 42.5171 35.0018 42.2628 35.0018 41.9976V35.998C35.0018 35.7328 34.8965 35.4784 34.7089 35.2909C34.5214 35.1034 34.2671 34.998 34.0019 34.998Z" stroke="#F37321" stroke-width="0.5"/>
<path d="M34.0019 44.9973C33.7367 44.9973 33.4823 45.1027 33.2948 45.2902C33.1073 45.4777 33.0019 45.7321 33.0019 45.9973V51.9969C33.0019 52.2621 33.1073 52.5164 33.2948 52.704C33.4823 52.8915 33.7367 52.9968 34.0019 52.9968C34.2671 52.9968 34.5214 52.8915 34.7089 52.704C34.8965 52.5164 35.0018 52.2621 35.0018 51.9969V45.9973C35.0018 45.7321 34.8965 45.4777 34.7089 45.2902C34.5214 45.1027 34.2671 44.9973 34.0019 44.9973Z" stroke="#F37321" stroke-width="0.5"/>
<path d="M57.6479 43.8784L59.1342 31.9882C59.3738 31.9558 59.5935 31.8376 59.7527 31.6556C59.9119 31.4736 59.9998 31.2401 60 30.9983V24.9986C60 24.7334 59.8946 24.4791 59.7071 24.2916C59.5196 24.104 59.2653 23.9987 59.0001 23.9987H56.4676C57.2046 23.1771 57.7005 22.1679 57.9007 21.0825C58.1008 19.9971 57.9975 18.8775 57.6021 17.847C57.2066 16.8165 56.5344 15.9152 55.6595 15.2423C54.7846 14.5695 53.7409 14.1512 52.6434 14.0335C53.078 12.8293 53.1159 11.5176 52.7514 10.2903C52.387 9.06303 51.6394 7.98455 50.6181 7.21264C49.5967 6.44073 48.3551 6.01589 47.075 6.00027C45.7948 5.98465 44.5433 6.37906 43.5034 7.12582C42.0161 5.17219 39.625 3.99988 37.0014 3.99988C33.8669 3.99988 31.088 5.67828 29.7778 8.269C28.8801 7.9905 27.9295 7.92687 27.0026 8.08325C26.0758 8.23962 25.1987 8.61163 24.442 9.16926C23.6853 9.72689 23.0703 10.4545 22.6465 11.2935C22.2227 12.1325 22.0021 13.0593 22.0023 13.9993C22.0023 14.0668 22.0045 14.134 22.0068 14.2014C21.313 14.3419 20.636 14.5556 19.9873 14.8389C19.5226 13.9513 18.9133 13.1473 18.1844 12.4599C16.9479 11.2847 16.1826 9.69882 16.0319 7.99964H17.0026C17.2678 7.99964 17.5221 7.89429 17.7096 7.70677C17.8972 7.51924 18.0025 7.2649 18.0025 6.9997V4.99982C18.0016 4.20449 17.6853 3.442 17.1229 2.87961C16.5605 2.31723 15.798 2.00089 15.0027 2H9.00305C8.20772 2.00089 7.44523 2.31723 6.88285 2.87961C6.32046 3.442 6.00413 4.20449 6.00323 4.99982V6.9997C6.00323 7.2649 6.10858 7.51924 6.29611 7.70677C6.48363 7.89429 6.73797 7.99964 7.00317 7.99964H7.97386C7.82322 9.69887 7.05788 11.2848 5.82137 12.46C4.92748 13.2978 4.21589 14.3108 3.73104 15.4359C3.2462 16.5609 2.9985 17.7739 3.00341 18.999C3.0029 19.7374 3.2759 20.4499 3.76974 20.9989C3.2759 21.5479 3.0029 22.2603 3.00341 22.9987V23.9987H1.00353C0.738331 23.9987 0.483992 24.104 0.296467 24.2916C0.108942 24.4791 0.00359171 24.7334 0.00359171 24.9986V30.9983C0.00382492 31.2401 0.0916693 31.4736 0.250858 31.6556C0.410048 31.8376 0.629797 31.9558 0.869415 31.9882L2.35995 43.9125L0.37032 47.5598C0.104386 48.0435 -0.0226292 48.5914 0.00330717 49.1429C0.0292435 49.6943 0.207122 50.2279 0.517289 50.6845C0.827455 51.1412 1.25783 51.5033 1.76087 51.7307C2.26391 51.9581 2.82002 52.042 3.36777 51.9731L3.69937 54.6267C3.93948 56.5481 5.64675 57.9966 7.67088 57.9966H52.3327C54.3567 57.9966 56.0641 56.5481 56.3042 54.6272L56.6411 51.9323C57.2607 52.0097 57.889 51.8894 58.4362 51.5884C58.7821 51.3998 59.0874 51.1449 59.3347 50.8382C59.582 50.5316 59.7665 50.1793 59.8777 49.8013C59.9888 49.4234 60.0245 49.0273 59.9825 48.6356C59.9406 48.2438 59.8219 47.8642 59.6333 47.5184L57.6479 43.8784ZM58.0001 25.9986V29.9983H50.077L47.8952 25.9986H58.0001ZM57.1173 31.9982L56.0081 40.8727L51.1678 31.9982H57.1173ZM28.0019 9.99952C28.6466 9.99774 29.2819 10.1536 29.8526 10.4536C29.9808 10.5208 30.1221 10.5594 30.2667 10.5666C30.4113 10.5738 30.5557 10.5496 30.69 10.4955C30.8243 10.4415 30.9453 10.3589 31.0446 10.2535C31.1438 10.1481 31.219 10.0225 31.265 9.88515C32.0423 7.56117 34.3479 5.99976 37.0014 5.99976C39.2887 5.99976 41.4105 7.22194 42.4071 9.11332C42.4821 9.25567 42.5903 9.37782 42.7226 9.4694C42.8549 9.56097 43.0073 9.61927 43.167 9.63935C43.3266 9.65942 43.4887 9.64067 43.6396 9.58469C43.7904 9.52872 43.9256 9.43716 44.0335 9.31781C44.5754 8.7182 45.2863 8.29684 46.0725 8.10926C46.8587 7.92167 47.6832 7.97667 48.4375 8.26699C49.1918 8.55732 49.8405 9.06935 50.298 9.73563C50.7555 10.4019 51.0005 11.1912 51.0005 11.9994C51.0038 12.9076 50.6943 13.7893 50.1242 14.4963C49.9948 14.658 49.9188 14.8559 49.9066 15.0626C49.8945 15.2694 49.9469 15.4749 50.0566 15.6506C50.1663 15.8263 50.3278 15.9636 50.5189 16.0435C50.71 16.1235 50.9212 16.1421 51.1233 16.0969C51.6722 15.9733 52.2409 15.9669 52.7925 16.078C53.344 16.1892 53.8659 16.4155 54.324 16.7421C54.7821 17.0687 55.1662 17.4883 55.4511 17.9735C55.736 18.4586 55.9154 18.9984 55.9775 19.5576C56.0395 20.1168 55.9829 20.6828 55.8114 21.2186C55.6398 21.7545 55.3571 22.2481 54.9818 22.6672C54.6064 23.0863 54.1469 23.4216 53.6332 23.651C53.1195 23.8804 52.5631 23.9989 52.0005 23.9987H49.5415C49.0525 22.4446 48.1913 21.0336 47.0328 19.8882C45.8742 18.7428 44.4534 17.8977 42.8938 17.4266C41.3343 16.9554 39.6833 16.8723 38.0843 17.1845C36.4854 17.4968 34.9869 18.1949 33.7192 19.2182C33.495 19.3996 33.2794 19.5902 33.0725 19.7898C32.2702 18.0601 30.99 16.596 29.3829 15.57C27.7758 14.544 25.9088 13.999 24.0022 13.9993C24.0033 12.9388 24.4251 11.9222 25.175 11.1723C25.9248 10.4225 26.9415 10.0007 28.0019 9.99952ZM47.4174 23.9987H32.585C33.0971 22.7391 33.9198 21.6296 34.9765 20.7739C36.3994 19.6255 38.1727 18.9992 40.0012 18.9992C41.8297 18.9992 43.603 19.6255 45.0259 20.7739C46.0826 21.6296 46.9053 22.7391 47.4174 23.9987ZM20.7107 16.7066C22.0601 16.0983 23.5516 15.8759 25.0197 16.0644C26.4878 16.2528 27.8749 16.8446 29.0269 17.7741C30.239 18.7553 31.1398 20.0677 31.6197 21.5516C31.1244 22.311 30.7346 23.1343 30.4609 23.9987H21.0023V22.9987C21.0028 22.2603 20.7298 21.5479 20.236 20.9989C20.7298 20.4499 21.0028 19.7374 21.0023 18.999C21.0032 18.2256 20.9052 17.4552 20.7107 16.7066ZM44.6679 25.9986L42.7659 27.036C42.5331 27.163 42.3603 27.3773 42.2854 27.6317C42.2106 27.8861 42.2399 28.1599 42.3669 28.3927L43.2428 29.9983H16.7836L17.6365 28.4347C17.7635 28.2019 17.7928 27.9281 17.718 27.6737C17.6432 27.4193 17.4704 27.205 17.2376 27.078L15.2587 25.9986H44.6679ZM8.00311 4.99982C8.00341 4.73471 8.10886 4.48055 8.29632 4.29308C8.48378 4.10562 8.73794 4.00018 9.00305 3.99988H15.0027C15.2678 4.00018 15.522 4.10562 15.7094 4.29308C15.8969 4.48055 16.0023 4.73471 16.0026 4.99982V5.99976H8.00311V4.99982ZM15.2813 11.9994H8.72444C9.45042 10.7829 9.88021 9.41281 9.97912 7.99964H14.0266C14.1255 9.41281 14.5553 10.7829 15.2813 11.9994ZM7.10879 13.9993H16.897C17.5662 14.6481 18.0977 15.4254 18.4595 16.2845C18.8213 17.1435 19.0059 18.0668 19.0025 18.999C19.0022 19.2641 18.8967 19.5183 18.7092 19.7057C18.5218 19.8932 18.2676 19.9986 18.0025 19.9989H6.00323C5.73812 19.9986 5.48396 19.8932 5.2965 19.7057C5.10904 19.5183 5.00359 19.2641 5.00329 18.999C4.9998 18.0668 5.18447 17.1435 5.54626 16.2844C5.90804 15.4254 6.4395 14.6481 7.10879 13.9993ZM5.00329 22.9987C5.00359 22.7336 5.10904 22.4795 5.2965 22.292C5.48396 22.1045 5.73812 21.9991 6.00323 21.9988H18.0025C18.2676 21.9991 18.5218 22.1045 18.7092 22.292C18.8967 22.4795 19.0022 22.7336 19.0025 22.9987V23.9987H5.00329V22.9987ZM2.00347 29.9983V25.9986H12.1312L9.94962 29.9983H2.00347ZM8.85869 31.9982L3.99973 40.9063L2.88617 31.9982H8.85869ZM3.88161 49.4757C3.7954 49.6336 3.66821 49.7654 3.51343 49.8572C3.35864 49.9489 3.18198 49.9973 3.00204 49.9971C2.83522 49.9973 2.67108 49.9552 2.52494 49.8748C2.29236 49.7475 2.11972 49.5333 2.0449 49.2789C1.97009 49.0246 1.99919 48.751 2.12584 48.5181L13.6464 27.3971L15.402 28.3548L3.88161 49.4757ZM54.3197 54.3792C54.2045 55.3014 53.3503 55.9968 52.3323 55.9968H7.67088C6.65332 55.9968 5.79912 55.3014 5.6835 54.3792L5.2579 50.9742C5.40378 50.8084 5.53092 50.627 5.637 50.4333L13.0028 36.9299V41.9976C13.0028 42.2628 13.1082 42.5171 13.2957 42.7047C13.4832 42.8922 13.7376 42.9975 14.0028 42.9975C14.268 42.9975 14.5223 42.8922 14.7098 42.7047C14.8973 42.5171 15.0027 42.2628 15.0027 41.9976V35.998C15.0026 35.742 14.9042 35.4958 14.7279 35.3102C14.5516 35.1247 14.3108 35.0138 14.0551 35.0006L15.6928 31.9982H44.3336L45.971 34.9995C45.7112 35.0071 45.4646 35.1156 45.2834 35.302C45.1023 35.4884 45.001 35.7381 45.0009 35.998V41.9976C45.0009 42.2628 45.1062 42.5171 45.2938 42.7047C45.4813 42.8922 45.7356 42.9975 46.0008 42.9975C46.266 42.9975 46.5204 42.8922 46.7079 42.7047C46.8954 42.5171 47.0008 42.2628 47.0008 41.9976V36.8882L54.3662 50.3914C54.4734 50.5871 54.6021 50.7702 54.7499 50.9373L54.3197 54.3792ZM57.9591 49.237C57.9034 49.4269 57.7926 49.5959 57.6407 49.7227C57.4889 49.8495 57.3029 49.9284 57.1062 49.9495C56.9095 49.9705 56.7109 49.9328 56.5357 49.841C56.3605 49.7492 56.2164 49.6075 56.1217 49.4338L44.6009 28.3129L46.3567 27.3552L57.8776 48.4761C57.9408 48.5913 57.9806 48.7178 57.9945 48.8484C58.0085 48.979 57.9965 49.1111 57.9591 49.237Z" stroke="#F37321" stroke-width="0.5"/>
</g>
<defs>
<clipPath id="clip0_23:74">
<rect width="60" height="60" fill="white"/>
</clipPath>
</defs>
</svg>
