<svg width="60" height="60" viewBox="0 0 60 60" fill="none" xmlns="http://www.w3.org/2000/svg">
<path d="M30.96 24C30.7 24.008 30.45 24.116 30.266 24.304L24.99 29.564L21.74 26.324C20.83 25.376 19.36 26.84 20.31 27.748L24.276 31.704C24.67 32.098 25.31 32.098 25.706 31.704L31.696 25.73C32.356 25.09 31.87 24 30.962 24H30.96ZM1 32H7C7.554 32 8 32.446 8 33C8 33.554 7.554 34 7 34H1C0.446 34 0 33.554 0 33C0 32.446 0.446 32 1 32ZM1 24H7C7.554 24 8 24.446 8 25C8 25.554 7.554 26 7 26H1C0.446 26 0 25.554 0 25C0 24.446 0.446 24 1 24ZM1 16H7C7.554 16 8 16.446 8 17C8 17.554 7.554 18 7 18H1C0.446 18 0 17.554 0 17C0 16.446 0.446 16 1 16ZM49 38C46.25 38 44 40.25 44 43C44 45.75 46.25 48 49 48C51.75 48 54 45.75 54 43C54 40.25 51.75 38 49 38ZM49 40C50.668 40 52 41.332 52 43C52 44.668 50.668 46 49 46C47.332 46 46 44.668 46 43C46 41.332 47.332 40 49 40ZM23 38C20.25 38 18 40.25 18 43C18 45.75 20.25 48 23 48C25.75 48 28 45.75 28 43C28 40.25 25.75 38 23 38ZM23 40C24.668 40 26 41.332 26 43C26 44.668 24.668 46 23 46C21.332 46 20 44.668 20 43C20 41.332 21.332 40 23 40ZM13 12C11.356 12 10 13.356 10 15V37C10 38.644 11.356 40 13 40H17C18.352 40.02 18.352 37.98 17 38H13C12.428 38 12 37.572 12 37V15C12 14.428 12.428 14 13 14H39C39.572 14 40 14.428 40 15V38H29C27.68 38 27.704 40.02 29 40H43C44.32 40 44.308 38 43 38H42V20H50.454L58 31.792V37C58 37.572 57.572 38 57 38H55C53.692 38 53.692 40 55 40H57C58.644 40 60 38.644 60 37V31.5C60 31.31 59.946 31.12 59.844 30.96L51.844 18.46C51.66 18.174 51.344 18 51 18H42V15C42 13.356 40.644 12 39 12H13Z" fill="#F37321"/>
</svg>
